<svg width="57" height="56" viewBox="0 0 57 56" fill="none" xmlns="http://www.w3.org/2000/svg">
<circle cx="28.791" cy="28" r="28" fill="#7EB693"/>
<path d="M39.6781 36.8921L34.9175 32.1315C36.0637 30.6057 36.6824 28.7485 36.6803 26.8402C36.6803 21.9657 32.7146 18 27.8402 18C22.9657 18 19 21.9657 19 26.8402C19 31.7146 22.9657 35.6803 27.8402 35.6803C29.7485 35.6824 31.6057 35.0637 33.1315 33.9175L37.8921 38.6781C38.1331 38.8936 38.4474 39.0085 38.7705 38.9995C39.0936 38.9905 39.401 38.8581 39.6295 38.6295C39.8581 38.401 39.9905 38.0936 39.9995 37.7705C40.0085 37.4474 39.8936 37.1331 39.6781 36.8921V36.8921ZM21.5258 26.8402C21.5258 25.5913 21.8961 24.3705 22.5899 23.3321C23.2838 22.2937 24.2699 21.4843 25.4237 21.0064C26.5775 20.5285 27.8472 20.4034 29.072 20.6471C30.2969 20.8907 31.422 21.4921 32.3051 22.3752C33.1882 23.2583 33.7896 24.3834 34.0332 25.6083C34.2769 26.8332 34.1518 28.1028 33.6739 29.2566C33.196 30.4104 32.3866 31.3966 31.3483 32.0904C30.3099 32.7842 29.089 33.1546 27.8402 33.1546C26.1661 33.1526 24.5612 32.4866 23.3774 31.3029C22.1937 30.1192 21.5278 28.5142 21.5258 26.8402V26.8402Z" fill="#FAFAFA"/>
</svg>
